<svg xmlns="http://www.w3.org/2000/svg" xmlns:xlink="http://www.w3.org/1999/xlink" x="0px" y="0px" enable-background="new 0 0 100 100" version="1.1" viewBox="0 0 100 125" xml:space="preserve">
    <g>
        <path d="M31.899,50L72.324,8.394c0.77-0.792,0.751-2.058-0.041-2.828c-0.793-0.77-2.058-0.752-2.828,0.041l-41.779,43   c-0.041,0.043-0.072,0.091-0.108,0.137c-0.043,0.052-0.089,0.102-0.125,0.158c-0.038,0.057-0.066,0.118-0.097,0.178   c-0.029,0.056-0.062,0.11-0.086,0.168c-0.026,0.063-0.041,0.128-0.06,0.193c-0.017,0.059-0.038,0.117-0.05,0.177   c-0.012,0.064-0.015,0.129-0.022,0.194c-0.006,0.063-0.015,0.125-0.015,0.188s0.009,0.125,0.015,0.188   c0.006,0.065,0.009,0.13,0.022,0.194c0.012,0.06,0.032,0.118,0.05,0.177c0.019,0.065,0.035,0.13,0.06,0.193   c0.024,0.058,0.056,0.112,0.086,0.168c0.031,0.06,0.059,0.121,0.097,0.178c0.036,0.055,0.083,0.105,0.125,0.158   c0.037,0.045,0.067,0.094,0.108,0.137l41.779,43C69.848,94.797,70.368,95,70.89,95c0.502,0,1.005-0.188,1.394-0.565   c0.792-0.77,0.811-2.036,0.041-2.828L31.899,50z"/>
    </g>
</svg>
